<mxfile host="app.diagrams.net" agent="Mozilla/5.0 (X11; Linux x86_64; rv:131.0) Gecko/20100101 Firefox/131.0" version="24.8.4">
  <diagram name="Page-1" id="aCUoTUS-z-20jltxeiBX">
    <mxGraphModel dx="7475" dy="2080" grid="1" gridSize="10" guides="1" tooltips="1" connect="1" arrows="1" fold="1" page="1" pageScale="1" pageWidth="850" pageHeight="1100" math="0" shadow="0">
      <root>
        <mxCell id="0" />
        <mxCell id="1" parent="0" />
        <mxCell id="vLmUpz1jAhk_XsVfe2ap-39" value="&amp;nbsp;" style="text;whiteSpace=wrap;html=1;" parent="1" vertex="1">
          <mxGeometry x="40" y="10" width="40" height="40" as="geometry" />
        </mxCell>
        <mxCell id="GkCeSSy5X3w6YveUIObA-11" style="edgeStyle=orthogonalEdgeStyle;rounded=0;orthogonalLoop=1;jettySize=auto;html=1;entryX=0;entryY=0.5;entryDx=0;entryDy=0;" parent="1" source="GkCeSSy5X3w6YveUIObA-8" target="GkCeSSy5X3w6YveUIObA-9" edge="1">
          <mxGeometry relative="1" as="geometry" />
        </mxCell>
        <mxCell id="GkCeSSy5X3w6YveUIObA-12" value="&lt;font style=&quot;font-size: 20px;&quot;&gt;Usuário Não Registrado&lt;br&gt;&lt;/font&gt;" style="edgeLabel;html=1;align=center;verticalAlign=middle;resizable=0;points=[];" parent="GkCeSSy5X3w6YveUIObA-11" vertex="1" connectable="0">
          <mxGeometry x="0.0207" y="2" relative="1" as="geometry">
            <mxPoint as="offset" />
          </mxGeometry>
        </mxCell>
        <mxCell id="GkCeSSy5X3w6YveUIObA-19" style="edgeStyle=orthogonalEdgeStyle;rounded=0;orthogonalLoop=1;jettySize=auto;html=1;entryX=0;entryY=0;entryDx=0;entryDy=0;" parent="1" source="GkCeSSy5X3w6YveUIObA-8" target="GkCeSSy5X3w6YveUIObA-16" edge="1">
          <mxGeometry relative="1" as="geometry">
            <mxPoint x="-2900" y="3410" as="targetPoint" />
            <Array as="points">
              <mxPoint x="-3310" y="3350" />
              <mxPoint x="-2890" y="3350" />
            </Array>
          </mxGeometry>
        </mxCell>
        <mxCell id="GkCeSSy5X3w6YveUIObA-20" value="&lt;font style=&quot;font-size: 20px;&quot;&gt;Usuário Existente&lt;/font&gt;" style="edgeLabel;html=1;align=center;verticalAlign=middle;resizable=0;points=[];" parent="GkCeSSy5X3w6YveUIObA-19" vertex="1" connectable="0">
          <mxGeometry x="-0.7801" relative="1" as="geometry">
            <mxPoint as="offset" />
          </mxGeometry>
        </mxCell>
        <mxCell id="GkCeSSy5X3w6YveUIObA-8" value="&lt;font style=&quot;font-size: 32px;&quot;&gt;Usuário&lt;/font&gt;" style="html=1;dashed=0;whiteSpace=wrap;strokeWidth=3;fillColor=#cce5ff;strokeColor=#36393d;" parent="1" vertex="1">
          <mxGeometry x="-3440" y="3110" width="260" height="80" as="geometry" />
        </mxCell>
        <mxCell id="GkCeSSy5X3w6YveUIObA-13" style="edgeStyle=orthogonalEdgeStyle;rounded=0;orthogonalLoop=1;jettySize=auto;html=1;entryX=0;entryY=0.5;entryDx=0;entryDy=0;" parent="1" source="GkCeSSy5X3w6YveUIObA-9" target="GkCeSSy5X3w6YveUIObA-10" edge="1">
          <mxGeometry relative="1" as="geometry" />
        </mxCell>
        <mxCell id="GkCeSSy5X3w6YveUIObA-14" value="&lt;font style=&quot;font-size: 20px;&quot;&gt;Armazenamento de Dados&lt;/font&gt;" style="edgeLabel;html=1;align=center;verticalAlign=middle;resizable=0;points=[];" parent="GkCeSSy5X3w6YveUIObA-13" vertex="1" connectable="0">
          <mxGeometry x="-0.0021" relative="1" as="geometry">
            <mxPoint as="offset" />
          </mxGeometry>
        </mxCell>
        <mxCell id="GkCeSSy5X3w6YveUIObA-105" style="edgeStyle=orthogonalEdgeStyle;rounded=0;orthogonalLoop=1;jettySize=auto;html=1;entryX=0.5;entryY=0;entryDx=0;entryDy=0;" parent="1" source="GkCeSSy5X3w6YveUIObA-9" target="GkCeSSy5X3w6YveUIObA-16" edge="1">
          <mxGeometry relative="1" as="geometry" />
        </mxCell>
        <mxCell id="GkCeSSy5X3w6YveUIObA-106" value="&lt;font style=&quot;font-size: 20px;&quot;&gt;Redirecionamento&lt;/font&gt;" style="edgeLabel;html=1;align=center;verticalAlign=middle;resizable=0;points=[];" parent="GkCeSSy5X3w6YveUIObA-105" vertex="1" connectable="0">
          <mxGeometry x="-0.0296" y="2" relative="1" as="geometry">
            <mxPoint as="offset" />
          </mxGeometry>
        </mxCell>
        <mxCell id="GkCeSSy5X3w6YveUIObA-9" value="&lt;font style=&quot;font-size: 32px;&quot;&gt;Registro&lt;/font&gt;" style="ellipse;whiteSpace=wrap;html=1;aspect=fixed;strokeWidth=3;fillColor=#ffff88;strokeColor=#36393d;" parent="1" vertex="1">
          <mxGeometry x="-2890" y="3050" width="200" height="200" as="geometry" />
        </mxCell>
        <mxCell id="GkCeSSy5X3w6YveUIObA-23" style="edgeStyle=orthogonalEdgeStyle;rounded=0;orthogonalLoop=1;jettySize=auto;html=1;" parent="1" source="GkCeSSy5X3w6YveUIObA-10" target="GkCeSSy5X3w6YveUIObA-16" edge="1">
          <mxGeometry relative="1" as="geometry">
            <mxPoint x="-2650" y="3370" as="targetPoint" />
            <Array as="points">
              <mxPoint x="-2250" y="3370" />
            </Array>
          </mxGeometry>
        </mxCell>
        <mxCell id="GkCeSSy5X3w6YveUIObA-25" value="&lt;font style=&quot;font-size: 20px;&quot;&gt;Recebendo Informações&lt;/font&gt;" style="edgeLabel;html=1;align=center;verticalAlign=middle;resizable=0;points=[];" parent="GkCeSSy5X3w6YveUIObA-23" vertex="1" connectable="0">
          <mxGeometry x="0.2918" relative="1" as="geometry">
            <mxPoint x="-3" as="offset" />
          </mxGeometry>
        </mxCell>
        <mxCell id="GkCeSSy5X3w6YveUIObA-10" value="&lt;font style=&quot;font-size: 32px;&quot;&gt;Banco de Dados&lt;br&gt;&lt;/font&gt;" style="html=1;dashed=0;whiteSpace=wrap;shape=partialRectangle;right=0;strokeWidth=3;fillColor=#ffff88;strokeColor=#36393d;" parent="1" vertex="1">
          <mxGeometry x="-2400" y="3115" width="300" height="70" as="geometry" />
        </mxCell>
        <mxCell id="GkCeSSy5X3w6YveUIObA-21" style="edgeStyle=orthogonalEdgeStyle;rounded=0;orthogonalLoop=1;jettySize=auto;html=1;entryX=0.599;entryY=1.03;entryDx=0;entryDy=0;entryPerimeter=0;" parent="1" source="GkCeSSy5X3w6YveUIObA-16" target="GkCeSSy5X3w6YveUIObA-10" edge="1">
          <mxGeometry relative="1" as="geometry">
            <mxPoint x="-2220" y="3190" as="targetPoint" />
          </mxGeometry>
        </mxCell>
        <mxCell id="GkCeSSy5X3w6YveUIObA-22" value="&lt;font style=&quot;font-size: 20px;&quot;&gt;Recuperação de Informações&lt;br&gt;&lt;/font&gt;" style="edgeLabel;html=1;align=center;verticalAlign=middle;resizable=0;points=[];" parent="GkCeSSy5X3w6YveUIObA-21" vertex="1" connectable="0">
          <mxGeometry x="-0.4022" y="-1" relative="1" as="geometry">
            <mxPoint as="offset" />
          </mxGeometry>
        </mxCell>
        <mxCell id="GkCeSSy5X3w6YveUIObA-16" value="&lt;font style=&quot;font-size: 32px;&quot;&gt;Login&lt;br&gt;&lt;/font&gt;" style="ellipse;whiteSpace=wrap;html=1;aspect=fixed;strokeWidth=3;fillColor=#ffff88;strokeColor=#36393d;" parent="1" vertex="1">
          <mxGeometry x="-2890" y="3320" width="200" height="200" as="geometry" />
        </mxCell>
        <mxCell id="GkCeSSy5X3w6YveUIObA-117" style="edgeStyle=orthogonalEdgeStyle;rounded=0;orthogonalLoop=1;jettySize=auto;html=1;" parent="1" source="GkCeSSy5X3w6YveUIObA-26" target="GkCeSSy5X3w6YveUIObA-116" edge="1">
          <mxGeometry relative="1" as="geometry" />
        </mxCell>
        <mxCell id="GkCeSSy5X3w6YveUIObA-26" value="&lt;font style=&quot;font-size: 32px;&quot;&gt;Criar Postagem&lt;br&gt;&lt;/font&gt;" style="ellipse;whiteSpace=wrap;html=1;aspect=fixed;strokeWidth=3;fillColor=#ffff88;strokeColor=#36393d;" parent="1" vertex="1">
          <mxGeometry x="-3040" y="3580" width="200" height="200" as="geometry" />
        </mxCell>
        <mxCell id="GkCeSSy5X3w6YveUIObA-123" style="edgeStyle=orthogonalEdgeStyle;rounded=0;orthogonalLoop=1;jettySize=auto;html=1;entryX=0.5;entryY=0;entryDx=0;entryDy=0;" parent="1" source="GkCeSSy5X3w6YveUIObA-27" target="GkCeSSy5X3w6YveUIObA-29" edge="1">
          <mxGeometry relative="1" as="geometry" />
        </mxCell>
        <mxCell id="GkCeSSy5X3w6YveUIObA-27" value="&lt;font style=&quot;font-size: 32px;&quot;&gt;Visualizar Outras Postagens &lt;br&gt;&lt;/font&gt;" style="ellipse;whiteSpace=wrap;html=1;aspect=fixed;strokeWidth=3;fillColor=#ffff88;strokeColor=#36393d;" parent="1" vertex="1">
          <mxGeometry x="-2615" y="3580" width="200" height="200" as="geometry" />
        </mxCell>
        <mxCell id="GkCeSSy5X3w6YveUIObA-29" value="&lt;font style=&quot;font-size: 32px;&quot;&gt;Curtir Postagem&lt;br&gt;&lt;/font&gt;" style="ellipse;whiteSpace=wrap;html=1;aspect=fixed;strokeWidth=3;fillColor=#ffff88;strokeColor=#36393d;" parent="1" vertex="1">
          <mxGeometry x="-2615" y="3810" width="200" height="200" as="geometry" />
        </mxCell>
        <mxCell id="GkCeSSy5X3w6YveUIObA-45" style="edgeStyle=orthogonalEdgeStyle;rounded=0;orthogonalLoop=1;jettySize=auto;html=1;entryX=1;entryY=0.5;entryDx=0;entryDy=0;" parent="1" source="GkCeSSy5X3w6YveUIObA-30" target="GkCeSSy5X3w6YveUIObA-31" edge="1">
          <mxGeometry relative="1" as="geometry" />
        </mxCell>
        <mxCell id="GkCeSSy5X3w6YveUIObA-46" value="&lt;font style=&quot;font-size: 20px;&quot;&gt;Remover Curtida&lt;br&gt;&lt;/font&gt;" style="edgeLabel;html=1;align=center;verticalAlign=middle;resizable=0;points=[];" parent="GkCeSSy5X3w6YveUIObA-45" vertex="1" connectable="0">
          <mxGeometry x="-0.0133" y="1" relative="1" as="geometry">
            <mxPoint as="offset" />
          </mxGeometry>
        </mxCell>
        <mxCell id="GkCeSSy5X3w6YveUIObA-30" value="&lt;font style=&quot;font-size: 32px;&quot;&gt;Remover Curtida&lt;br&gt;&lt;/font&gt;" style="ellipse;whiteSpace=wrap;html=1;aspect=fixed;strokeWidth=3;fillColor=#ffff88;strokeColor=#36393d;" parent="1" vertex="1">
          <mxGeometry x="-2290" y="4065" width="200" height="200" as="geometry" />
        </mxCell>
        <mxCell id="GkCeSSy5X3w6YveUIObA-31" value="&lt;font style=&quot;font-size: 32px;&quot;&gt;Banco de Dados&lt;br&gt;&lt;/font&gt;" style="html=1;dashed=0;whiteSpace=wrap;shape=partialRectangle;right=0;strokeWidth=3;fillColor=#ffff88;strokeColor=#36393d;" parent="1" vertex="1">
          <mxGeometry x="-2800" y="4130" width="300" height="70" as="geometry" />
        </mxCell>
        <mxCell id="GkCeSSy5X3w6YveUIObA-37" value="" style="endArrow=classic;html=1;rounded=0;entryX=0.1;entryY=0;entryDx=0;entryDy=0;entryPerimeter=0;" parent="1" source="GkCeSSy5X3w6YveUIObA-26" target="GkCeSSy5X3w6YveUIObA-31" edge="1">
          <mxGeometry width="50" height="50" relative="1" as="geometry">
            <mxPoint x="-2900" y="3880" as="sourcePoint" />
            <mxPoint x="-2850" y="3830" as="targetPoint" />
          </mxGeometry>
        </mxCell>
        <mxCell id="GkCeSSy5X3w6YveUIObA-40" value="&lt;font style=&quot;font-size: 20px;&quot;&gt;Armazenamento de Dados&lt;br&gt;&lt;/font&gt;" style="edgeLabel;html=1;align=center;verticalAlign=middle;resizable=0;points=[];" parent="GkCeSSy5X3w6YveUIObA-37" vertex="1" connectable="0">
          <mxGeometry x="-0.3407" y="1" relative="1" as="geometry">
            <mxPoint x="49" y="-29" as="offset" />
          </mxGeometry>
        </mxCell>
        <mxCell id="GkCeSSy5X3w6YveUIObA-42" value="" style="endArrow=none;html=1;rounded=0;entryX=1;entryY=0.5;entryDx=0;entryDy=0;exitX=0.5;exitY=0;exitDx=0;exitDy=0;endFill=0;startArrow=classic;startFill=1;" parent="1" source="GkCeSSy5X3w6YveUIObA-27" target="GkCeSSy5X3w6YveUIObA-16" edge="1">
          <mxGeometry width="50" height="50" relative="1" as="geometry">
            <mxPoint x="-2630" y="3570" as="sourcePoint" />
            <mxPoint x="-2580" y="3520" as="targetPoint" />
          </mxGeometry>
        </mxCell>
        <mxCell id="GkCeSSy5X3w6YveUIObA-67" style="edgeStyle=orthogonalEdgeStyle;rounded=0;orthogonalLoop=1;jettySize=auto;html=1;entryX=0;entryY=0.5;entryDx=0;entryDy=0;" parent="1" source="GkCeSSy5X3w6YveUIObA-56" target="GkCeSSy5X3w6YveUIObA-59" edge="1">
          <mxGeometry relative="1" as="geometry" />
        </mxCell>
        <mxCell id="GkCeSSy5X3w6YveUIObA-56" value="&lt;font style=&quot;font-size: 32px;&quot;&gt;Acessar Outro Perfil&lt;br&gt;&lt;/font&gt;" style="ellipse;whiteSpace=wrap;html=1;aspect=fixed;strokeWidth=3;fillColor=#ffff88;strokeColor=#36393d;" parent="1" vertex="1">
          <mxGeometry x="-2290" y="3520" width="200" height="200" as="geometry" />
        </mxCell>
        <mxCell id="GkCeSSy5X3w6YveUIObA-57" value="" style="endArrow=none;html=1;rounded=0;exitX=0;exitY=0;exitDx=0;exitDy=0;startArrow=classic;startFill=1;" parent="1" source="GkCeSSy5X3w6YveUIObA-56" edge="1">
          <mxGeometry width="50" height="50" relative="1" as="geometry">
            <mxPoint x="-2470" y="3530" as="sourcePoint" />
            <mxPoint x="-2690" y="3420" as="targetPoint" />
          </mxGeometry>
        </mxCell>
        <mxCell id="GkCeSSy5X3w6YveUIObA-58" value="" style="endArrow=classic;html=1;rounded=0;exitX=0;exitY=0.5;exitDx=0;exitDy=0;" parent="1" source="GkCeSSy5X3w6YveUIObA-56" target="GkCeSSy5X3w6YveUIObA-27" edge="1">
          <mxGeometry width="50" height="50" relative="1" as="geometry">
            <mxPoint x="-2370" y="3650" as="sourcePoint" />
            <mxPoint x="-2410" y="3580" as="targetPoint" />
          </mxGeometry>
        </mxCell>
        <mxCell id="GkCeSSy5X3w6YveUIObA-62" style="edgeStyle=orthogonalEdgeStyle;rounded=0;orthogonalLoop=1;jettySize=auto;html=1;entryX=0.5;entryY=0;entryDx=0;entryDy=0;" parent="1" source="GkCeSSy5X3w6YveUIObA-59" target="GkCeSSy5X3w6YveUIObA-61" edge="1">
          <mxGeometry relative="1" as="geometry" />
        </mxCell>
        <mxCell id="GkCeSSy5X3w6YveUIObA-63" value="&lt;font style=&quot;font-size: 20px;&quot;&gt;Armazenamento de Dados&lt;br&gt;&lt;/font&gt;" style="edgeLabel;html=1;align=center;verticalAlign=middle;resizable=0;points=[];" parent="GkCeSSy5X3w6YveUIObA-62" vertex="1" connectable="0">
          <mxGeometry x="-0.0981" y="2" relative="1" as="geometry">
            <mxPoint as="offset" />
          </mxGeometry>
        </mxCell>
        <mxCell id="GkCeSSy5X3w6YveUIObA-59" value="&lt;font style=&quot;font-size: 32px;&quot;&gt;Seguir Outro Perfil&lt;br&gt;&lt;/font&gt;" style="ellipse;whiteSpace=wrap;html=1;aspect=fixed;strokeWidth=3;fillColor=#ffff88;strokeColor=#36393d;" parent="1" vertex="1">
          <mxGeometry x="-1950" y="3520" width="200" height="200" as="geometry" />
        </mxCell>
        <mxCell id="GkCeSSy5X3w6YveUIObA-60" value="&lt;font style=&quot;font-size: 32px;&quot;&gt;Deixar de Seguir&lt;br&gt;&lt;/font&gt;" style="ellipse;whiteSpace=wrap;html=1;aspect=fixed;strokeWidth=3;fillColor=#ffff88;strokeColor=#36393d;" parent="1" vertex="1">
          <mxGeometry x="-1650" y="3740" width="200" height="200" as="geometry" />
        </mxCell>
        <mxCell id="GkCeSSy5X3w6YveUIObA-61" value="&lt;font style=&quot;font-size: 32px;&quot;&gt;Banco de Dados&lt;br&gt;&lt;/font&gt;" style="html=1;dashed=0;whiteSpace=wrap;shape=partialRectangle;right=0;strokeWidth=3;fillColor=#ffff88;strokeColor=#36393d;" parent="1" vertex="1">
          <mxGeometry x="-2000" y="3980" width="300" height="70" as="geometry" />
        </mxCell>
        <mxCell id="GkCeSSy5X3w6YveUIObA-68" value="" style="endArrow=classic;html=1;rounded=0;exitX=1;exitY=0.5;exitDx=0;exitDy=0;entryX=0.5;entryY=0;entryDx=0;entryDy=0;" parent="1" source="GkCeSSy5X3w6YveUIObA-59" target="GkCeSSy5X3w6YveUIObA-60" edge="1">
          <mxGeometry width="50" height="50" relative="1" as="geometry">
            <mxPoint x="-1600" y="3640" as="sourcePoint" />
            <mxPoint x="-1550" y="3590" as="targetPoint" />
            <Array as="points">
              <mxPoint x="-1550" y="3620" />
            </Array>
          </mxGeometry>
        </mxCell>
        <mxCell id="GkCeSSy5X3w6YveUIObA-69" value="" style="endArrow=classic;html=1;rounded=0;entryX=1;entryY=0.5;entryDx=0;entryDy=0;exitX=0.5;exitY=1;exitDx=0;exitDy=0;" parent="1" source="GkCeSSy5X3w6YveUIObA-60" target="GkCeSSy5X3w6YveUIObA-61" edge="1">
          <mxGeometry width="50" height="50" relative="1" as="geometry">
            <mxPoint x="-1590" y="4040" as="sourcePoint" />
            <mxPoint x="-1540" y="3990" as="targetPoint" />
            <Array as="points">
              <mxPoint x="-1550" y="4015" />
            </Array>
          </mxGeometry>
        </mxCell>
        <mxCell id="GkCeSSy5X3w6YveUIObA-70" value="&lt;font style=&quot;font-size: 20px;&quot;&gt;Remoção de Dados&lt;br&gt;&lt;/font&gt;" style="edgeLabel;html=1;align=center;verticalAlign=middle;resizable=0;points=[];" parent="GkCeSSy5X3w6YveUIObA-69" vertex="1" connectable="0">
          <mxGeometry x="-0.6356" y="1" relative="1" as="geometry">
            <mxPoint as="offset" />
          </mxGeometry>
        </mxCell>
        <mxCell id="GkCeSSy5X3w6YveUIObA-71" value="&amp;nbsp;" style="text;whiteSpace=wrap;html=1;" parent="1" vertex="1">
          <mxGeometry x="650" y="10" width="40" height="40" as="geometry" />
        </mxCell>
        <mxCell id="GkCeSSy5X3w6YveUIObA-80" style="edgeStyle=orthogonalEdgeStyle;rounded=0;orthogonalLoop=1;jettySize=auto;html=1;entryX=0.5;entryY=0;entryDx=0;entryDy=0;" parent="1" source="GkCeSSy5X3w6YveUIObA-72" target="GkCeSSy5X3w6YveUIObA-75" edge="1">
          <mxGeometry relative="1" as="geometry" />
        </mxCell>
        <mxCell id="GkCeSSy5X3w6YveUIObA-84" style="edgeStyle=orthogonalEdgeStyle;rounded=0;orthogonalLoop=1;jettySize=auto;html=1;entryX=1;entryY=0.5;entryDx=0;entryDy=0;" parent="1" source="GkCeSSy5X3w6YveUIObA-72" target="GkCeSSy5X3w6YveUIObA-73" edge="1">
          <mxGeometry relative="1" as="geometry" />
        </mxCell>
        <mxCell id="GkCeSSy5X3w6YveUIObA-72" value="&lt;font style=&quot;font-size: 32px;&quot;&gt;Acessar o Meu Perfil&lt;/font&gt;" style="ellipse;whiteSpace=wrap;html=1;aspect=fixed;strokeWidth=3;fillColor=#ffff88;strokeColor=#36393d;" parent="1" vertex="1">
          <mxGeometry x="-3340" y="3580" width="200" height="200" as="geometry" />
        </mxCell>
        <mxCell id="GkCeSSy5X3w6YveUIObA-89" style="edgeStyle=orthogonalEdgeStyle;rounded=0;orthogonalLoop=1;jettySize=auto;html=1;entryX=0.5;entryY=0;entryDx=0;entryDy=0;" parent="1" source="GkCeSSy5X3w6YveUIObA-73" target="GkCeSSy5X3w6YveUIObA-88" edge="1">
          <mxGeometry relative="1" as="geometry" />
        </mxCell>
        <mxCell id="GkCeSSy5X3w6YveUIObA-73" value="&lt;font style=&quot;font-size: 32px;&quot;&gt;Acessar&lt;/font&gt;&lt;font style=&quot;font-size: 32px;&quot;&gt; as Próprias Postagens&lt;br&gt;&lt;/font&gt;" style="ellipse;whiteSpace=wrap;html=1;aspect=fixed;strokeWidth=3;fillColor=#ffff88;strokeColor=#36393d;" parent="1" vertex="1">
          <mxGeometry x="-3650" y="3580" width="200" height="200" as="geometry" />
        </mxCell>
        <mxCell id="GkCeSSy5X3w6YveUIObA-74" value="&lt;font style=&quot;font-size: 32px;&quot;&gt;Banco de Dados&lt;br&gt;&lt;/font&gt;" style="html=1;dashed=0;whiteSpace=wrap;shape=partialRectangle;right=0;strokeWidth=3;fillColor=#ffff88;strokeColor=#36393d;" parent="1" vertex="1">
          <mxGeometry x="-3700" y="4330" width="300" height="70" as="geometry" />
        </mxCell>
        <mxCell id="GkCeSSy5X3w6YveUIObA-75" value="&lt;font style=&quot;font-size: 32px;&quot;&gt;Alterar Foto de Perfil&lt;br&gt;&lt;/font&gt;" style="ellipse;whiteSpace=wrap;html=1;aspect=fixed;strokeWidth=3;fillColor=#ffff88;strokeColor=#36393d;" parent="1" vertex="1">
          <mxGeometry x="-3340" y="3900" width="200" height="200" as="geometry" />
        </mxCell>
        <mxCell id="GkCeSSy5X3w6YveUIObA-76" value="&lt;font style=&quot;font-size: 32px;&quot;&gt;Curtir Postagem&lt;br&gt;&lt;/font&gt;" style="ellipse;whiteSpace=wrap;html=1;aspect=fixed;strokeWidth=3;fillColor=#ffff88;strokeColor=#36393d;" parent="1" vertex="1">
          <mxGeometry x="-4070" y="3580" width="200" height="200" as="geometry" />
        </mxCell>
        <mxCell id="GkCeSSy5X3w6YveUIObA-77" value="&lt;font style=&quot;font-size: 32px;&quot;&gt;Remover Curtida&lt;br&gt;&lt;/font&gt;" style="ellipse;whiteSpace=wrap;html=1;aspect=fixed;strokeWidth=3;fillColor=#ffff88;strokeColor=#36393d;" parent="1" vertex="1">
          <mxGeometry x="-3890" y="3780" width="200" height="200" as="geometry" />
        </mxCell>
        <mxCell id="GkCeSSy5X3w6YveUIObA-78" value="" style="endArrow=classic;html=1;rounded=0;" parent="1" target="GkCeSSy5X3w6YveUIObA-72" edge="1">
          <mxGeometry width="50" height="50" relative="1" as="geometry">
            <mxPoint x="-2890" y="3410" as="sourcePoint" />
            <mxPoint x="-3050" y="3510" as="targetPoint" />
          </mxGeometry>
        </mxCell>
        <mxCell id="GkCeSSy5X3w6YveUIObA-90" style="edgeStyle=orthogonalEdgeStyle;rounded=0;orthogonalLoop=1;jettySize=auto;html=1;entryX=0.5;entryY=0;entryDx=0;entryDy=0;" parent="1" source="GkCeSSy5X3w6YveUIObA-88" target="GkCeSSy5X3w6YveUIObA-74" edge="1">
          <mxGeometry relative="1" as="geometry" />
        </mxCell>
        <mxCell id="GkCeSSy5X3w6YveUIObA-91" value="&lt;font style=&quot;font-size: 20px;&quot;&gt;Remover Postagem&lt;/font&gt;" style="edgeLabel;html=1;align=center;verticalAlign=middle;resizable=0;points=[];" parent="GkCeSSy5X3w6YveUIObA-90" vertex="1" connectable="0">
          <mxGeometry x="-0.0199" y="-2" relative="1" as="geometry">
            <mxPoint x="2" as="offset" />
          </mxGeometry>
        </mxCell>
        <mxCell id="GkCeSSy5X3w6YveUIObA-88" value="&lt;font style=&quot;font-size: 32px;&quot;&gt;Excluir Postagem&lt;br&gt;&lt;/font&gt;" style="ellipse;whiteSpace=wrap;html=1;aspect=fixed;strokeWidth=3;fillColor=#ffff88;strokeColor=#36393d;" parent="1" vertex="1">
          <mxGeometry x="-3650" y="3900" width="200" height="200" as="geometry" />
        </mxCell>
        <mxCell id="GkCeSSy5X3w6YveUIObA-93" value="" style="endArrow=none;html=1;rounded=0;entryX=0.5;entryY=1;entryDx=0;entryDy=0;exitX=1;exitY=0.5;exitDx=0;exitDy=0;startArrow=classic;startFill=1;" parent="1" source="GkCeSSy5X3w6YveUIObA-74" target="GkCeSSy5X3w6YveUIObA-75" edge="1">
          <mxGeometry width="50" height="50" relative="1" as="geometry">
            <mxPoint x="-3320" y="4370" as="sourcePoint" />
            <mxPoint x="-3270" y="4320" as="targetPoint" />
            <Array as="points">
              <mxPoint x="-3240" y="4365" />
            </Array>
          </mxGeometry>
        </mxCell>
        <mxCell id="GkCeSSy5X3w6YveUIObA-94" value="&lt;font style=&quot;font-size: 20px;&quot;&gt;Atualizar Foto de Perfil&lt;br&gt;&lt;/font&gt;" style="edgeLabel;html=1;align=center;verticalAlign=middle;resizable=0;points=[];" parent="GkCeSSy5X3w6YveUIObA-93" vertex="1" connectable="0">
          <mxGeometry x="0.4007" y="-1" relative="1" as="geometry">
            <mxPoint as="offset" />
          </mxGeometry>
        </mxCell>
        <mxCell id="GkCeSSy5X3w6YveUIObA-95" value="" style="endArrow=none;html=1;rounded=0;endFill=0;startArrow=classic;startFill=1;" parent="1" source="GkCeSSy5X3w6YveUIObA-76" target="GkCeSSy5X3w6YveUIObA-73" edge="1">
          <mxGeometry width="50" height="50" relative="1" as="geometry">
            <mxPoint x="-3760" y="3790" as="sourcePoint" />
            <mxPoint x="-3710" y="3740" as="targetPoint" />
          </mxGeometry>
        </mxCell>
        <mxCell id="GkCeSSy5X3w6YveUIObA-101" value="&lt;font style=&quot;font-size: 32px;&quot;&gt;Logout&lt;/font&gt;" style="ellipse;whiteSpace=wrap;html=1;aspect=fixed;strokeWidth=3;fillColor=#ffff88;strokeColor=#36393d;" parent="1" vertex="1">
          <mxGeometry x="-3650" y="3290" width="200" height="200" as="geometry" />
        </mxCell>
        <mxCell id="GkCeSSy5X3w6YveUIObA-102" value="" style="endArrow=classic;html=1;rounded=0;entryX=1;entryY=0.6;entryDx=0;entryDy=0;entryPerimeter=0;" parent="1" target="GkCeSSy5X3w6YveUIObA-101" edge="1">
          <mxGeometry width="50" height="50" relative="1" as="geometry">
            <mxPoint x="-2890" y="3410" as="sourcePoint" />
            <mxPoint x="-3330" y="3420" as="targetPoint" />
          </mxGeometry>
        </mxCell>
        <mxCell id="GkCeSSy5X3w6YveUIObA-103" value="" style="endArrow=classic;html=1;rounded=0;exitX=1;exitY=0.45;exitDx=0;exitDy=0;exitPerimeter=0;entryX=0.033;entryY=0.301;entryDx=0;entryDy=0;entryPerimeter=0;" parent="1" source="GkCeSSy5X3w6YveUIObA-101" target="GkCeSSy5X3w6YveUIObA-16" edge="1">
          <mxGeometry width="50" height="50" relative="1" as="geometry">
            <mxPoint x="-3420" y="3380" as="sourcePoint" />
            <mxPoint x="-2900" y="3380" as="targetPoint" />
          </mxGeometry>
        </mxCell>
        <mxCell id="GkCeSSy5X3w6YveUIObA-104" value="&lt;font style=&quot;font-size: 20px;&quot;&gt;Remoção dos Cookies de Autenticação&lt;br&gt;&lt;/font&gt;" style="edgeLabel;html=1;align=center;verticalAlign=middle;resizable=0;points=[];" parent="GkCeSSy5X3w6YveUIObA-103" vertex="1" connectable="0">
          <mxGeometry x="-0.0644" relative="1" as="geometry">
            <mxPoint as="offset" />
          </mxGeometry>
        </mxCell>
        <mxCell id="GkCeSSy5X3w6YveUIObA-109" value="" style="endArrow=classic;html=1;rounded=0;entryX=1;entryY=0;entryDx=0;entryDy=0;" parent="1" source="GkCeSSy5X3w6YveUIObA-73" target="GkCeSSy5X3w6YveUIObA-77" edge="1">
          <mxGeometry width="50" height="50" relative="1" as="geometry">
            <mxPoint x="-3660" y="3780" as="sourcePoint" />
            <mxPoint x="-3650" y="3750" as="targetPoint" />
          </mxGeometry>
        </mxCell>
        <mxCell id="GkCeSSy5X3w6YveUIObA-110" value="" style="endArrow=none;html=1;rounded=0;entryX=0.5;entryY=1;entryDx=0;entryDy=0;exitX=0;exitY=0.5;exitDx=0;exitDy=0;endFill=0;startArrow=classic;startFill=1;" parent="1" source="GkCeSSy5X3w6YveUIObA-74" target="GkCeSSy5X3w6YveUIObA-76" edge="1">
          <mxGeometry width="50" height="50" relative="1" as="geometry">
            <mxPoint x="-3970" y="4350" as="sourcePoint" />
            <mxPoint x="-3950" y="3890" as="targetPoint" />
            <Array as="points">
              <mxPoint x="-3970" y="4365" />
            </Array>
          </mxGeometry>
        </mxCell>
        <mxCell id="GkCeSSy5X3w6YveUIObA-111" value="&lt;font style=&quot;font-size: 20px;&quot;&gt;Armazenamento de Dados&lt;br&gt;&lt;/font&gt;" style="edgeLabel;html=1;align=center;verticalAlign=middle;resizable=0;points=[];" parent="GkCeSSy5X3w6YveUIObA-110" vertex="1" connectable="0">
          <mxGeometry x="0.3013" relative="1" as="geometry">
            <mxPoint y="-1" as="offset" />
          </mxGeometry>
        </mxCell>
        <mxCell id="GkCeSSy5X3w6YveUIObA-112" value="" style="endArrow=none;html=1;rounded=0;entryX=0.5;entryY=1;entryDx=0;entryDy=0;exitX=0.25;exitY=0;exitDx=0;exitDy=0;endFill=0;startArrow=classic;startFill=1;" parent="1" source="GkCeSSy5X3w6YveUIObA-74" target="GkCeSSy5X3w6YveUIObA-77" edge="1">
          <mxGeometry width="50" height="50" relative="1" as="geometry">
            <mxPoint x="-3760" y="4090" as="sourcePoint" />
            <mxPoint x="-3710" y="4040" as="targetPoint" />
          </mxGeometry>
        </mxCell>
        <mxCell id="GkCeSSy5X3w6YveUIObA-113" value="&lt;font style=&quot;font-size: 20px;&quot;&gt;Remover Curtida&lt;br&gt;&lt;/font&gt;" style="edgeLabel;html=1;align=center;verticalAlign=middle;resizable=0;points=[];" parent="GkCeSSy5X3w6YveUIObA-112" vertex="1" connectable="0">
          <mxGeometry x="0.052" relative="1" as="geometry">
            <mxPoint y="1" as="offset" />
          </mxGeometry>
        </mxCell>
        <mxCell id="GkCeSSy5X3w6YveUIObA-115" value="" style="endArrow=classic;html=1;rounded=0;entryX=0.5;entryY=0;entryDx=0;entryDy=0;" parent="1" source="GkCeSSy5X3w6YveUIObA-16" target="GkCeSSy5X3w6YveUIObA-26" edge="1">
          <mxGeometry width="50" height="50" relative="1" as="geometry">
            <mxPoint x="-2780" y="3570" as="sourcePoint" />
            <mxPoint x="-2730" y="3520" as="targetPoint" />
          </mxGeometry>
        </mxCell>
        <mxCell id="GkCeSSy5X3w6YveUIObA-116" value="&lt;font style=&quot;font-size: 32px;&quot;&gt;Excluir Postagem&lt;br&gt;&lt;/font&gt;" style="ellipse;whiteSpace=wrap;html=1;aspect=fixed;strokeWidth=3;fillColor=#ffff88;strokeColor=#36393d;" parent="1" vertex="1">
          <mxGeometry x="-3040" y="3900" width="200" height="200" as="geometry" />
        </mxCell>
        <mxCell id="GkCeSSy5X3w6YveUIObA-119" value="" style="endArrow=classic;html=1;rounded=0;entryX=0;entryY=0.571;entryDx=0;entryDy=0;entryPerimeter=0;exitX=0.524;exitY=1.014;exitDx=0;exitDy=0;exitPerimeter=0;" parent="1" source="GkCeSSy5X3w6YveUIObA-116" target="GkCeSSy5X3w6YveUIObA-31" edge="1">
          <mxGeometry width="50" height="50" relative="1" as="geometry">
            <mxPoint x="-2980" y="4170" as="sourcePoint" />
            <mxPoint x="-2930" y="4120" as="targetPoint" />
            <Array as="points">
              <mxPoint x="-2935" y="4170" />
            </Array>
          </mxGeometry>
        </mxCell>
        <mxCell id="GkCeSSy5X3w6YveUIObA-120" value="&lt;font style=&quot;font-size: 20px;&quot;&gt;Remover Postagem&lt;br&gt;&lt;/font&gt;" style="edgeLabel;html=1;align=center;verticalAlign=middle;resizable=0;points=[];" parent="GkCeSSy5X3w6YveUIObA-119" vertex="1" connectable="0">
          <mxGeometry x="-0.6256" relative="1" as="geometry">
            <mxPoint as="offset" />
          </mxGeometry>
        </mxCell>
        <mxCell id="GkCeSSy5X3w6YveUIObA-122" value="" style="endArrow=classic;html=1;rounded=0;exitX=1;exitY=0.45;exitDx=0;exitDy=0;exitPerimeter=0;entryX=0;entryY=0.5;entryDx=0;entryDy=0;" parent="1" source="GkCeSSy5X3w6YveUIObA-26" target="GkCeSSy5X3w6YveUIObA-29" edge="1">
          <mxGeometry width="50" height="50" relative="1" as="geometry">
            <mxPoint x="-2770" y="3720" as="sourcePoint" />
            <mxPoint x="-2720" y="3670" as="targetPoint" />
            <Array as="points">
              <mxPoint x="-2660" y="3670" />
              <mxPoint x="-2660" y="3910" />
            </Array>
          </mxGeometry>
        </mxCell>
        <mxCell id="GkCeSSy5X3w6YveUIObA-124" style="edgeStyle=orthogonalEdgeStyle;rounded=0;orthogonalLoop=1;jettySize=auto;html=1;entryX=0.951;entryY=-0.028;entryDx=0;entryDy=0;entryPerimeter=0;" parent="1" source="GkCeSSy5X3w6YveUIObA-29" target="GkCeSSy5X3w6YveUIObA-31" edge="1">
          <mxGeometry relative="1" as="geometry" />
        </mxCell>
        <mxCell id="GkCeSSy5X3w6YveUIObA-125" value="&lt;font style=&quot;font-size: 20px;&quot;&gt;Armazenamento de Dados&lt;br&gt;&lt;/font&gt;" style="edgeLabel;html=1;align=center;verticalAlign=middle;resizable=0;points=[];" parent="GkCeSSy5X3w6YveUIObA-124" vertex="1" connectable="0">
          <mxGeometry x="-0.0967" y="1" relative="1" as="geometry">
            <mxPoint y="1" as="offset" />
          </mxGeometry>
        </mxCell>
        <mxCell id="GkCeSSy5X3w6YveUIObA-126" value="" style="endArrow=classic;html=1;rounded=0;" parent="1" source="GkCeSSy5X3w6YveUIObA-29" target="GkCeSSy5X3w6YveUIObA-30" edge="1">
          <mxGeometry width="50" height="50" relative="1" as="geometry">
            <mxPoint x="-2380" y="4040" as="sourcePoint" />
            <mxPoint x="-2330" y="3990" as="targetPoint" />
          </mxGeometry>
        </mxCell>
        <mxCell id="GkCeSSy5X3w6YveUIObA-128" value="" style="endArrow=classic;html=1;rounded=0;exitX=0.875;exitY=0.85;exitDx=0;exitDy=0;exitPerimeter=0;entryX=0.5;entryY=-0.007;entryDx=0;entryDy=0;entryPerimeter=0;" parent="1" source="GkCeSSy5X3w6YveUIObA-27" target="GkCeSSy5X3w6YveUIObA-30" edge="1">
          <mxGeometry width="50" height="50" relative="1" as="geometry">
            <mxPoint x="-2230" y="3910" as="sourcePoint" />
            <mxPoint x="-2190" y="4060" as="targetPoint" />
            <Array as="points">
              <mxPoint x="-2190" y="3750" />
            </Array>
          </mxGeometry>
        </mxCell>
        <mxCell id="GkCeSSy5X3w6YveUIObA-133" value="" style="endArrow=none;html=1;rounded=0;exitX=0;exitY=0.5;exitDx=0;exitDy=0;startArrow=classic;startFill=1;entryX=0.027;entryY=0.677;entryDx=0;entryDy=0;entryPerimeter=0;" parent="1" source="GkCeSSy5X3w6YveUIObA-116" target="GkCeSSy5X3w6YveUIObA-16" edge="1">
          <mxGeometry width="50" height="50" relative="1" as="geometry">
            <mxPoint x="-3090" y="4030" as="sourcePoint" />
            <mxPoint x="-2900" y="3460" as="targetPoint" />
            <Array as="points">
              <mxPoint x="-3070" y="4000" />
              <mxPoint x="-3070" y="3620" />
              <mxPoint x="-2970" y="3530" />
              <mxPoint x="-2890" y="3460" />
            </Array>
          </mxGeometry>
        </mxCell>
        <mxCell id="GkCeSSy5X3w6YveUIObA-135" value="&lt;font style=&quot;font-size: 32px;&quot;&gt;Remover Curtida&lt;br&gt;&lt;/font&gt;" style="ellipse;whiteSpace=wrap;html=1;aspect=fixed;strokeWidth=3;fillColor=#ffff88;strokeColor=#36393d;" parent="1" vertex="1">
          <mxGeometry x="-3040" y="4230" width="200" height="200" as="geometry" />
        </mxCell>
        <mxCell id="GkCeSSy5X3w6YveUIObA-138" value="" style="endArrow=none;html=1;rounded=0;entryX=0;entryY=0.55;entryDx=0;entryDy=0;entryPerimeter=0;exitX=0;exitY=0.55;exitDx=0;exitDy=0;exitPerimeter=0;startArrow=classic;startFill=1;" parent="1" source="GkCeSSy5X3w6YveUIObA-135" target="GkCeSSy5X3w6YveUIObA-16" edge="1">
          <mxGeometry width="50" height="50" relative="1" as="geometry">
            <mxPoint x="-3120" y="4340.476190476191" as="sourcePoint" />
            <mxPoint x="-2990" y="3530" as="targetPoint" />
            <Array as="points">
              <mxPoint x="-3120" y="4340" />
              <mxPoint x="-3120" y="3620" />
            </Array>
          </mxGeometry>
        </mxCell>
        <mxCell id="GkCeSSy5X3w6YveUIObA-139" value="" style="endArrow=classic;html=1;rounded=0;exitX=1.015;exitY=0.546;exitDx=0;exitDy=0;exitPerimeter=0;entryX=0.5;entryY=1;entryDx=0;entryDy=0;" parent="1" source="GkCeSSy5X3w6YveUIObA-135" target="GkCeSSy5X3w6YveUIObA-31" edge="1">
          <mxGeometry width="50" height="50" relative="1" as="geometry">
            <mxPoint x="-2800" y="4330" as="sourcePoint" />
            <mxPoint x="-2750" y="4280" as="targetPoint" />
          </mxGeometry>
        </mxCell>
        <mxCell id="GkCeSSy5X3w6YveUIObA-140" value="&lt;font style=&quot;font-size: 20px;&quot;&gt;Remover Curtida&lt;br&gt;&lt;/font&gt;" style="edgeLabel;html=1;align=center;verticalAlign=middle;resizable=0;points=[];" parent="GkCeSSy5X3w6YveUIObA-139" vertex="1" connectable="0">
          <mxGeometry x="-0.2039" y="1" relative="1" as="geometry">
            <mxPoint x="13" as="offset" />
          </mxGeometry>
        </mxCell>
        <mxCell id="GkCeSSy5X3w6YveUIObA-141" value="" style="endArrow=classic;html=1;rounded=0;exitX=0.5;exitY=0;exitDx=0;exitDy=0;entryX=0.75;entryY=0.061;entryDx=0;entryDy=0;entryPerimeter=0;endFill=1;" parent="1" source="GkCeSSy5X3w6YveUIObA-56" target="GkCeSSy5X3w6YveUIObA-60" edge="1">
          <mxGeometry width="50" height="50" relative="1" as="geometry">
            <mxPoint x="-2080" y="3500" as="sourcePoint" />
            <mxPoint x="-1500" y="3700" as="targetPoint" />
            <Array as="points">
              <mxPoint x="-2190" y="3480" />
              <mxPoint x="-1500" y="3480" />
            </Array>
          </mxGeometry>
        </mxCell>
      </root>
    </mxGraphModel>
  </diagram>
</mxfile>
